<svg width="130.89mm" height="102.32mm" version="1.1" viewBox="0 0 130.89 102.32" xmlns="http://www.w3.org/2000/svg">
 <g transform="translate(213.25 3.8685)">
  <g transform="translate(-396.84 829.26)">
   <path d="m280.11-833.13c-6.2817 0-12.563 2.0999-17.893 6.2988-10.659 8.3979-16.477 22.852-16.477 38.256a5.9587 5.9587 0 1 0 11.916 0c0-12.298 5.0117-23.443 11.934-28.896 6.9219-5.4534 14.115-5.4534 21.037 0 6.9219 5.4534 11.936 16.598 11.936 28.896a5.9587 5.9587 0 1 0 11.916 0c0-15.404-5.8174-29.858-16.477-38.256-5.3296-4.1989-11.611-6.2988-17.893-6.2988z" color="#000000" color-rendering="auto" dominant-baseline="auto" fill="#515151" image-rendering="auto" shape-rendering="auto" solid-color="#000000" style="font-feature-settings:normal;font-variant-alternates:normal;font-variant-caps:normal;font-variant-ligatures:normal;font-variant-numeric:normal;font-variant-position:normal;isolation:auto;mix-blend-mode:normal;shape-padding:0;text-decoration-color:#000000;text-decoration-line:none;text-decoration-style:solid;text-indent:0;text-orientation:mixed;text-transform:none;white-space:normal"/>
   <path d="m191.28-788.61h64.011c4.2619 0 7.693 3.4311 7.693 7.693v42.411c0 4.2619-3.4311 7.693-7.693 7.693h-64.011c-4.2619 0-7.693-3.4311-7.693-7.693v-42.411c0-4.2619 3.4311-7.693 7.693-7.693z" fill="#777"/>
   <path d="m185.75-733.16c0.0303 0.0313 0.0524 0.07 0.0832 0.10077 0.34763 0.34763 0.72824 0.66197 1.1374 0.93793s0.8469 0.51384 1.3074 0.70797 0.94369 0.34485 1.4454 0.447c0.5017 0.10214 1.0217 0.15554 1.5544 0.15554h64.011c0.53274 0 1.0527-0.0534 1.5544-0.15554 0.50168-0.10215 0.98489-0.25287 1.4454-0.447 0.4605-0.19413 0.89828-0.43201 1.3074-0.70797 0.40915-0.27596 0.78978-0.5903 1.1374-0.93793 0.34763-0.34763 0.66196-0.72825 0.93792-1.1374 0.27596-0.40914 0.51384-0.84691 0.70797-1.3074 0.19412-0.4605 0.34486-0.94369 0.44699-1.4454 0.10215-0.5017 0.15554-1.0217 0.15554-1.5544v-42.411c0-0.42982-0.0347-0.85122-0.10178-1.2614-0.0671-0.41021-0.16666-0.80947-0.29559-1.1948-0.12896-0.38528-0.28745-0.75653-0.47284-1.1116-0.18542-0.35502-0.39807-0.6934-0.6346-1.0128-0.23651-0.31946-0.49697-0.6201-0.77928-0.89866-0.28231-0.27855-0.58621-0.53506-0.90898-0.76739-0.32276-0.23233-0.66429-0.44037-1.0222-0.62115-0.35788-0.18079-0.73218-0.33446-1.1198-0.45837a5.9587 5.9587 0 0 0 7e-3 -0.33176c-3e-5 -1.5373 0.0783-3.0567 0.22891-4.5491 0.15055-1.4924 0.37349-2.9576 0.66249-4.3873 0.28901-1.4297 0.64403-2.824 1.0594-4.1734s0.89053-2.6539 1.4201-3.9052c0.52954-1.2513 1.1135-2.4493 1.7451-3.5848s1.3113-2.2082 2.033-3.2101c0.72162-1.0019 1.4851-1.9332 2.2846-2.7838 0.79947-0.85066 1.6349-1.621 2.5001-2.3027 0.86522-0.68168 1.7349-1.2783 2.6076-1.7896 0.87264-0.51125 1.7483-0.93712 2.6262-1.278 0.87796-0.34084 1.758-0.59646 2.6391-0.76688 0.88114-0.17042 1.7631-0.2558 2.6453-0.2558 0.88217 0 1.7647 0.0854 2.6458 0.2558 0.88112 0.17042 1.7612 0.42604 2.6391 0.76688 0.87794 0.34083 1.7536 0.7667 2.6262 1.278 0.87265 0.51126 1.7424 1.1079 2.6076 1.7896 0.86524 0.68167 1.7006 1.452 2.5001 2.3027 0.79952 0.85066 1.5634 1.7819 2.2851 2.7838 0.7217 1.0019 1.4012 2.0747 2.033 3.2101 0.63174 1.1355 1.2154 2.3335 1.7451 3.5848 0.52967 1.2513 1.0056 2.5558 1.4211 3.9052 0.41545 1.3494 0.77079 2.7436 1.0599 4.1734 0.28911 1.4297 0.51189 2.895 0.66249 4.3873 0.15063 1.4924 0.22895 3.0118 0.22895 4.5491a5.9587 5.9587 0 0 0 0.0212 0.59531 5.9587 5.9587 0 0 0 0.0801 0.59014 5.9587 5.9587 0 0 0 0.13901 0.5793 5.9587 5.9587 0 0 0 0.19585 0.56224 5.9587 5.9587 0 0 0 0.25114 0.54001 5.9587 5.9587 0 0 0 0.30387 0.51263 5.9587 5.9587 0 0 0 0.35346 0.47904 5.9587 5.9587 0 0 0 0.39947 0.44184 5.9587 5.9587 0 0 0 0.44182 0.39997 5.9587 5.9587 0 0 0 0.47903 0.35347 5.9587 5.9587 0 0 0 0.51213 0.30386 5.9587 5.9587 0 0 0 0.54002 0.25115 5.9587 5.9587 0 0 0 0.56274 0.19637 5.9587 5.9587 0 0 0 0.57877 0.139 5.9587 5.9587 0 0 0 0.59016 0.0806 5.9587 5.9587 0 0 0 0.59531 0.0207 5.9587 5.9587 0 0 0 0.59481-0.0382 5.9587 5.9587 0 0 0 0.58756-0.0977 5.9587 5.9587 0 0 0 0.57462-0.15554 5.9587 5.9587 0 0 0 0.55658-0.21239 5.9587 5.9587 0 0 0 0.53226-0.26665 5.9587 5.9587 0 0 0 0.50332-0.31885 5.9587 5.9587 0 0 0 0.46924-0.3669 5.9587 5.9587 0 0 0 0.42994-0.41238 5.9587 5.9587 0 0 0 0.38653-0.4532 5.9587 5.9587 0 0 0 0.33899-0.48938 5.9587 5.9587 0 0 0 0.28887-0.52089 5.9587 5.9587 0 0 0 0.23566-0.54726 5.9587 5.9587 0 0 0 0.17984-0.56792 5.9587 5.9587 0 0 0 0.12195-0.58291 5.9587 5.9587 0 0 0 0.0631-0.59221 5.9587 5.9587 0 0 0 9e-3 -0.42323c0-0.96276-0.0225-1.9217-0.0677-2.8758s-0.11314-1.9034-0.2031-2.8463c-0.0899-0.94292-0.20219-1.8793-0.33642-2.8086-0.13419-0.92927-0.29019-1.8516-0.46818-2.7647-0.17798-0.91312-0.37764-1.8175-0.59893-2.712-0.22127-0.89448-0.46451-1.7787-0.72864-2.652-0.26411-0.87335-0.54927-1.7357-0.85574-2.5854-0.30647-0.84972-0.63405-1.6868-0.98237-2.5104-0.34835-0.8236-0.71769-1.6338-1.1074-2.4288-0.38973-0.79498-0.79976-1.575-1.2304-2.3389-0.43066-0.76388-0.88178-1.5115-1.3529-2.2417-0.47112-0.73027-0.96224-1.4432-1.4733-2.1373-0.51107-0.69418-1.0421-1.3696-1.5927-2.0252-0.55058-0.65559-1.1209-1.2913-1.7105-1.9058s-1.1986-1.2078-1.8268-1.7787c-0.62812-0.57094-1.2753-1.1195-1.9415-1.6444-0.66619-0.52486-1.3471-1.0171-2.0412-1.4764-0.69409-0.45927-1.4015-0.88532-2.1198-1.279-0.71823-0.39367-1.4472-0.75456-2.1859-1.0826-0.73871-0.32806-1.4868-0.62379-2.2423-0.88625-0.75541-0.26246-1.5182-0.49199-2.2867-0.68884-0.76846-0.19685-1.5425-0.36073-2.3203-0.49196-0.77774-0.13124-1.5591-0.22997-2.3425-0.29559-0.78332-0.0656-1.5686-0.0982-2.3539-0.0982-0.78521 0-1.5705 0.0326-2.3539 0.0982-0.78333 0.0656-1.5647 0.16435-2.3425 0.29559-0.77777 0.13123-1.5518 0.29511-2.3203 0.49196s-1.5312 0.42638-2.2867 0.68884c-0.75544 0.26246-1.5035 0.55819-2.2422 0.88625-0.73872 0.32807-1.4681 0.68896-2.1864 1.0826-0.71826 0.39367-1.4256 0.81972-2.1198 1.279-0.69408 0.45927-1.375 0.95153-2.0412 1.4764-0.66569 0.52447-1.3122 1.0723-1.9399 1.6428-0.6277 0.57046-1.2366 1.1637-1.8257 1.7777-0.5892 0.61397-1.1592 1.2488-1.7095 1.9038-0.55023 0.655-1.0808 1.3301-1.5916 2.0236-0.51081 0.69353-1.0014 1.4057-1.4723 2.1353-0.30694 0.47557-0.59176 0.96984-0.88159 1.4598-3.4588 38.674-30.102 71.373-67.043 82.726z" fill-opacity=".36224"/>
  </g>
 </g>
</svg>
