<svg width="304.02mm" height="304.02mm" version="1.1" viewBox="0 0 304.02 304.02" xmlns="http://www.w3.org/2000/svg">
 <g transform="translate(214 107.5)">
  <circle cx="-159.01" cy="44.512" r="54.982" fill="#c6fafa"/>
  <path d="m-139.82 6.0794-54.464 38.432 54.464 38.433-6.0616-22.622 23.418-6.2745v-19.072l-23.418-6.2751z" fill="#e0e0e0" stroke="#000" stroke-width="3.465"/>
  <circle cx="-61.988" cy="-52.514" r="54.982" fill="#c6fafa"/>
  <path d="m-23.556-33.324-38.432-54.464-38.433 54.464 22.622-6.0616 6.2746 23.418h19.072l6.2751-23.418z" fill="#e0e0e0" stroke="#000" stroke-width="3.465"/>
  <circle cx="35.038" cy="44.512" r="54.982" fill="#c6fafa"/>
  <path d="m15.848 82.944 54.464-38.432-54.464-38.433 6.0616 22.622-23.418 6.2745v19.072l23.418 6.2751z" fill="#e0e0e0" stroke="#000" stroke-width="3.465"/>
  <circle cx="-61.988" cy="141.54" r="54.982" fill="#c6fafa"/>
  <path d="m-100.42 122.35 38.432 54.464 38.433-54.464-22.622 6.0616-6.2746-23.418h-19.072l-6.2751 23.418z" fill="#e0e0e0" stroke="#000" stroke-width="3.465"/>
 </g>
</svg>
