<svg width="103.1mm" height="103.1mm" version="1.1" viewBox="0 0 103.1 103.1" xmlns="http://www.w3.org/2000/svg">
 <g transform="translate(211.88 -16.658)">
  <g transform="matrix(.80801 0 0 .80801 -81.243 844.09)">
   <path d="m-101.26-1024-4.5891 14.494-9.7826 2.6213-11.222-10.258-2.9272 1.6899-2.9272 1.6901 3.2729 14.847-7.1613 7.1613-14.847-3.273-1.69 2.9272-1.69 2.9271 10.258 11.222-2.6212 9.7824-14.495 4.5893v6.76l14.495 4.5892 2.6212 9.7824-10.258 11.222 3.38 5.8544 14.847-3.273 7.1613 7.1613-3.2729 14.847 2.9272 1.6899 2.9272 1.6901 11.222-10.258 9.7826 2.6212 4.5891 14.495h6.7601l4.5891-14.495 9.7826-2.6212 11.222 10.258 2.9272-1.6901 2.9272-1.6899-3.2729-14.847 7.1613-7.1613 14.847 3.273 3.38-5.8544-10.258-11.222 2.6212-9.7824 14.495-4.5892v-6.76l-14.495-4.5893-2.6212-9.7824 10.258-11.222-1.69-2.9271-1.69-2.9272-14.847 3.273-7.1614-7.1613 3.273-14.847-2.9272-1.6901-2.9272-1.6899-11.222 10.258-9.7825-2.6213-4.5891-14.494h-3.3801zm3.38 29.63a34.171 34.171 0 0 1 34.171 34.171 34.171 34.171 0 0 1-34.171 34.171 34.171 34.171 0 0 1-34.171-34.171 34.171 34.171 0 0 1 34.171-34.171z" fill="#777"/>
   <path d="m-131.54-911.96-1.1674 5.2948 2.9275 1.6898 2.927 1.6898 11.222-10.258 9.7829 2.621 4.5889 14.495h6.7603l4.5889-14.495 9.7829-2.621 11.222 10.258 5.8539-3.3796-3.2727-14.848 7.1613-7.1613 14.847 3.2732 1.6898-2.927 1.6903-2.9275-10.258-11.222 2.6215-9.7824 14.494-4.5894v-6.7598l-14.495-4.5894-2.621-9.7824 10.258-11.222-1.6903-2.927-1.6898-2.927-14.847 3.2727-7.1613-7.1613 3.2727-14.847-2.927-1.6903-2.8329-1.6356a95.549 95.549 0 0 1 1.2775 15.118 95.549 95.549 0 0 1-2.6427 21.838 34.171 34.171 0 0 1 1.0516 1.4702 34.171 34.171 0 0 1 1.6991 2.9626 34.171 34.171 0 0 1 1.3953 3.1176 34.171 34.171 0 0 1 1.0775 3.2417 34.171 34.171 0 0 1 0.74774 3.3326 34.171 34.171 0 0 1 0.41188 3.391 34.171 34.171 0 0 1 0.08525 2.4169 34.171 34.171 0 0 1-0.17052 3.4117 34.171 34.171 0 0 1-0.51057 3.377 34.171 34.171 0 0 1-0.84489 3.3094 34.171 34.171 0 0 1-1.1715 3.2086 34.171 34.171 0 0 1-1.4857 3.0758 34.171 34.171 0 0 1-1.7849 2.912 34.171 34.171 0 0 1-2.0676 2.7192 34.171 34.171 0 0 1-2.328 2.4991 34.171 34.171 0 0 1-2.5662 2.2541 34.171 34.171 0 0 1-2.7781 1.987 34.171 34.171 0 0 1-2.9631 1.6996 34.171 34.171 0 0 1-3.1176 1.3953 34.171 34.171 0 0 1-3.2411 1.0769 34.171 34.171 0 0 1-3.3326 0.74776 34.171 34.171 0 0 1-3.391 0.41186 34.171 34.171 0 0 1-2.4169 0.0858 34.171 34.171 0 0 1-3.4117-0.17105 34.171 34.171 0 0 1-3.0902-0.46715 95.549 95.549 0 0 1-27.159 14.736z" fill-opacity=".36224"/>
  </g>
 </g>
</svg>
