<svg width="79.397mm" height="102.32mm" version="1.1" viewBox="0 0 79.397 102.32" xmlns="http://www.w3.org/2000/svg">
 <g transform="translate(305.04 -13.764)">
  <g transform="translate(163.48 824.36)">
   <path d="m-400.32-760a5.9587 5.9587 0 0 0 5.8672-6.043c0-15.404-5.8174-29.858-16.477-38.256-10.659-8.3979-25.126-8.3979-35.785 0-10.659 8.3979-16.477 22.852-16.477 38.256a5.9587 5.9587 0 1 0 11.916 0c1e-5 -12.298 5.0137-23.441 11.936-28.895 6.9218-5.4534 14.113-5.4534 21.035 0 6.9218 5.4534 11.936 16.596 11.936 28.895a5.9587 5.9587 0 0 0 6.0488 6.043z" color="#000000" color-rendering="auto" dominant-baseline="auto" fill="#515151" image-rendering="auto" shape-rendering="auto" solid-color="#000000" style="font-feature-settings:normal;font-variant-alternates:normal;font-variant-caps:normal;font-variant-ligatures:normal;font-variant-numeric:normal;font-variant-position:normal;isolation:auto;mix-blend-mode:normal;shape-padding:0;text-decoration-color:#000000;text-decoration-line:none;text-decoration-style:solid;text-indent:0;text-orientation:mixed;text-transform:none;white-space:normal"/>
   <path d="m-460.83-766.07h64.011c4.2619 0 7.693 3.4311 7.693 7.693v42.411c0 4.2619-3.4311 7.693-7.693 7.693h-64.011c-4.2619 0-7.693-3.4311-7.693-7.693v-42.411c0-4.2619 3.4311-7.693 7.693-7.693z" fill="#777"/>
   <path d="m-465.74-710.09c0.20079 0.16764 0.38711 0.35197 0.6046 0.49868 0.40915 0.27596 0.84693 0.51383 1.3074 0.70797 0.46048 0.19413 0.94369 0.34485 1.4454 0.447 0.50171 0.10214 1.0217 0.15554 1.5544 0.15554h64.011c0.53274 0 1.0527-0.0534 1.5544-0.15554 0.50171-0.10215 0.98489-0.25287 1.4454-0.447 0.4605-0.19414 0.89826-0.43201 1.3074-0.70797s0.78975-0.5903 1.1374-0.93793c0.34763-0.34763 0.66196-0.72825 0.93792-1.1374 0.27596-0.40914 0.51385-0.84691 0.70797-1.3074 0.19413-0.4605 0.34486-0.94369 0.44702-1.4454 0.10212-0.5017 0.15554-1.0217 0.15554-1.5544v-42.411c0-0.42986-0.0352-0.85115-0.10234-1.2614-0.0671-0.41026-0.1661-0.80943-0.29506-1.1948-0.12896-0.38532-0.28792-0.757-0.47337-1.1121-0.18542-0.35507-0.39748-0.69338-0.63404-1.0129-0.23659-0.31948-0.49745-0.62008-0.77981-0.89865s-0.58616-0.53558-0.909-0.76792c-0.32282-0.23233-0.66471-0.43987-1.0227-0.62063-0.35795-0.18076-0.7321-0.3345-1.1198-0.45837a5.9587 5.9587 0 0 0 7e-3 -0.3328c0-0.96275-0.0225-1.9217-0.0677-2.8758-0.0452-0.95408-0.11313-1.9034-0.20309-2.8463-0.0899-0.94292-0.2022-1.8794-0.33639-2.8086-0.13423-0.92926-0.29023-1.8511-0.46821-2.7642-0.17799-0.91311-0.37764-1.8175-0.59891-2.712-0.2213-0.89447-0.46453-1.7792-0.72866-2.6526-0.26411-0.87333-0.54928-1.7357-0.85575-2.5854-0.30646-0.84971-0.63404-1.6869-0.98237-2.5104-0.2009-0.47498-0.42402-0.93479-0.63873-1.4004a95.549 95.549 0 0 1-66.407 79.11z" fill-opacity=".36078" opacity=".75"/>
  </g>
 </g>
</svg>
